<?xml version="1.0" encoding="UTF-8"?>
<svg id="Warstwa_2" data-name="Warstwa 2" xmlns="http://www.w3.org/2000/svg" viewBox="0 0 479.85 240.71">
  <defs>
    <style>
      .cls-1 {
        fill: #fff;
        stroke-width: 0px;
      }
    </style>
  </defs>
  <g id="Warstwa_1-2" data-name="Warstwa 1">
    <g>
      <path class="cls-1" d="m209.83,114.84c-5.94.66-9.57,4.01-10.44,9.49l22.39-2.49c-2.34-5.85-7.27-7.52-11.95-7Z"/>
      <path class="cls-1" d="m190.68,186.36c-.34-1.72-.95-3.05-1.88-3.95-1.07-1.03-2.46-1.44-4.17-1.25-1.74.19-3.03.92-3.87,2.19-.72,1.09-1.02,2.51-.94,4.22l10.87-1.21Z"/>
      <path class="cls-1" d="m275.03,134.27c7.19-.8,11.85-6.27,10.98-14.08-.87-7.81-6.62-12.13-13.8-11.33-7.19.8-11.85,6.27-10.98,14.08.87,7.81,6.62,12.13,13.8,11.33Z"/>
      <path class="cls-1" d="m308.36,169.23c-1.04-1.09-2.49-1.54-4.33-1.33-1.24.14-2.24.53-2.99,1.19s-1.27,1.5-1.56,2.53c-.29,1.04-.36,2.2-.22,3.49.22,2,.87,3.55,1.93,4.67,1.07,1.11,2.5,1.57,4.31,1.37,1.85-.21,3.16-.97,3.94-2.3.77-1.33,1.05-2.98.83-4.95-.22-2.01-.86-3.56-1.9-4.65Z"/>
      <path class="cls-1" d="m242.11,177.99c-.5-.95-1.18-1.66-2.02-2.14-.84-.48-1.83-.65-2.97-.53-1.17.13-2.11.53-2.81,1.19-.7.66-1.19,1.51-1.45,2.55-.26,1.04-.32,2.18-.18,3.43.14,1.26.46,2.37.96,3.33.5.96,1.17,1.69,2,2.18.83.5,1.82.68,2.95.55,1.15-.13,2.09-.52,2.8-1.19.71-.67,1.21-1.52,1.49-2.57.28-1.05.35-2.2.21-3.46-.14-1.28-.46-2.4-.97-3.35Z"/>
      <path class="cls-1" d="m143.49,123.16c-7.19.8-11.85,6.27-10.98,14.08.87,7.81,6.62,12.13,13.8,11.33,7.19-.8,11.85-6.27,10.98-14.08-.87-7.81-6.62-12.13-13.8-11.33Z"/>
      <path class="cls-1" d="m134.24,190.01c-.49-.95-1.14-1.67-1.97-2.17s-1.83-.67-3-.54c-1.14.13-2.07.52-2.79,1.16-.71.65-1.21,1.49-1.5,2.53-.29,1.04-.36,2.2-.21,3.48h0c.14,1.26.46,2.37.96,3.33.5.96,1.17,1.69,2.01,2.18.84.49,1.84.68,2.99.55,1.14-.13,2.05-.52,2.76-1.19.7-.67,1.19-1.52,1.47-2.57.28-1.05.35-2.2.21-3.46-.14-1.25-.45-2.36-.94-3.31Z"/>
      <path class="cls-1" d="m94.08,197.09c-.34-1.72-.95-3.05-1.88-3.95-1.07-1.03-2.46-1.44-4.17-1.25-1.74.19-3.03.92-3.87,2.19-.72,1.09-1.02,2.51-.94,4.22l10.87-1.21Z"/>
      <path class="cls-1" d="m150.65,186.74c-1.04-1.09-2.49-1.54-4.33-1.33-1.24.14-2.24.53-2.99,1.19-.75.65-1.27,1.5-1.56,2.53-.29,1.04-.36,2.2-.22,3.49.22,2,.87,3.55,1.93,4.67,1.07,1.11,2.5,1.57,4.31,1.37,1.85-.21,3.16-.97,3.94-2.3.77-1.33,1.05-2.98.83-4.95-.22-2.01-.86-3.56-1.9-4.65Z"/>
      <path class="cls-1" d="m367.31,162.69c-1.05-1.09-2.49-1.54-4.33-1.33-1.25.14-2.24.53-2.99,1.19-.75.65-1.27,1.5-1.56,2.53-.29,1.04-.36,2.2-.22,3.49.22,2,.87,3.55,1.93,4.67,1.07,1.11,2.5,1.57,4.31,1.37,1.85-.21,3.16-.97,3.94-2.3.77-1.33,1.05-2.98.83-4.95-.22-2.01-.86-3.56-1.9-4.65Z"/>
      <path class="cls-1" d="m432.71,0l-222.46,77.26L71.55.25,0,240.71l337.45-35.86,142.4,34.13L432.71,0Zm-117.47,80.56l15.1-6.42,1.62,14.58,10.73-1.19,1.67,14.99-10.73,1.19,2.05,18.43c.5,4.48,4.4,4.47,11.22,3.29l1.57,14.16c-20.18,4.35-26.8-1.13-28.42-15.71l-2.05-18.43-8.33.93-1.67-15,8.33-.93-1.1-9.89Zm-222.49,11.12c5.1-.57,9.85,3.23,10.42,8.33.57,5.1-3.23,9.85-8.33,10.41-5.1.57-9.85-3.23-10.41-8.33-.57-5.1,3.23-9.85,8.33-10.41Zm16.19,74.53l-15.62,1.74-5.79-52.07,15.62-1.74,5.79,52.07Zm-15.64,38.61c-1.02.8-2.25,1.29-3.69,1.44-1.39.15-2.62-.03-3.69-.54-1.07-.51-1.95-1.32-2.62-2.43-.67-1.1-1.1-2.45-1.28-4.05-.18-1.61-.06-3.02.35-4.25.41-1.22,1.08-2.2,2.02-2.93s2.1-1.18,3.5-1.33c1.41-.16,2.65.03,3.72.55,1.07.52,1.94,1.36,2.6,2.51.67,1.15,1.09,2.58,1.28,4.28l-.71.08h0l-.45.05h-.07s-10.96,1.23-10.96,1.23c.27,1.93.9,3.4,1.93,4.4,1.09,1.05,2.51,1.48,4.25,1.29,1.22-.13,2.25-.54,3.11-1.21.85-.67,1.49-1.58,1.92-2.71l1.01.44c-.46,1.32-1.2,2.38-2.22,3.18Zm24.76-2.13l-1.1-10.14c-.14-1.23-.6-2.15-1.4-2.78-.79-.62-1.72-.88-2.77-.76-.58.06-1.15.26-1.72.59-.57.33-1.02.83-1.35,1.5-.33.67-.44,1.55-.32,2.64h0l1.06,9.78-1.12.12-1.08-9.95c-.14-1.27-.6-2.24-1.39-2.91-.79-.67-1.74-.94-2.85-.81-1.14.13-2.03.62-2.65,1.48-.62.86-.86,1.94-.71,3.25h0l1.09,9.78-1.14.13-1.63-14.71,1.06-.12.17,1.54c.33-.58.77-1.08,1.33-1.48.7-.51,1.54-.81,2.51-.92.83-.09,1.62,0,2.39.27s1.41.75,1.94,1.43c.09.12.17.26.26.4,0-.02,0-.04.02-.05.33-.85.86-1.53,1.57-2.06s1.56-.84,2.54-.95c1.39-.15,2.58.15,3.58.93,1,.77,1.58,1.92,1.75,3.45l1.11,10.22-1.14.13Zm18.04-5.46c-.36,1.23-.98,2.24-1.85,3.03-.87.79-2,1.26-3.39,1.42-1.3.14-2.44-.08-3.42-.67-.84-.5-1.53-1.21-2.09-2.09l1.05,9.46-1.14.13-2.36-21.25,1.06-.12.34,3.04c.36-1.07.92-1.96,1.71-2.67.87-.77,1.98-1.23,3.36-1.39,1.32-.15,2.47.07,3.47.66s1.8,1.43,2.41,2.55c.61,1.12,1,2.4,1.16,3.84.16,1.47.07,2.82-.29,4.05Zm17.35-1.82c-.39,1.22-1.05,2.22-1.98,2.98-.93.76-2.12,1.23-3.56,1.39-1.45.16-2.72-.04-3.79-.59-1.07-.55-1.93-1.38-2.58-2.5-.65-1.11-1.06-2.43-1.23-3.96-.17-1.54-.06-2.93.34-4.15.4-1.22,1.06-2.21,1.99-2.96.93-.76,2.11-1.21,3.54-1.37,1.46-.16,2.73.03,3.8.58,1.07.55,1.93,1.37,2.57,2.48.64,1.11,1.05,2.42,1.22,3.93.17,1.55.06,2.94-.32,4.17Zm18.66,1.27l-1.2.13-5.31-12.34-2.48,13.21-1.2.13-6.13-14.21,1.2-.13,5.31,12.32,2.48-13.18,1.2-.13,5.31,12.32,2.51-13.19,1.17-.13-2.86,15.21Zm-11.93-36.17l-.54-4.89c-3,4.34-7.83,7.3-14.81,8.08-13.64,1.52-26.22-9.21-27.94-24.73-1.72-15.52,8.19-28.74,21.83-30.26,6.98-.78,12.35,1.05,16.22,4.63l-2.86-25.72,15.62-1.74,8.1,72.9-15.62,1.74Zm29.72,33.57c-1.02.8-2.25,1.29-3.69,1.44-1.39.15-2.62-.03-3.69-.54s-1.95-1.32-2.62-2.43c-.67-1.1-1.1-2.45-1.28-4.05-.18-1.61-.06-3.02.35-4.25.41-1.22,1.08-2.2,2.02-2.93.93-.73,2.1-1.18,3.5-1.33,1.41-.16,2.65.03,3.72.55,1.07.52,1.94,1.36,2.6,2.51s1.09,2.58,1.28,4.28l-.71.08h0l-.24.03-.28.03h0l-10.96,1.22c.27,1.93.9,3.4,1.93,4.4,1.09,1.05,2.51,1.48,4.25,1.29,1.22-.13,2.25-.54,3.11-1.21.85-.67,1.49-1.58,1.92-2.71l1.01.44c-.46,1.32-1.2,2.38-2.22,3.18Zm10.79-14.44c-.67.16-1.27.55-1.8,1.16-.46.54-.77,1.13-.91,1.78-.14.65-.2,1.31-.17,1.98.03.67.08,1.31.14,1.91l.8,7.25-1.14.13-1.63-14.71,1.06-.12.26,2.32c.06-.14.12-.28.19-.41.2-.37.4-.68.6-.92.36-.43.8-.78,1.32-1.05.53-.27,1.06-.44,1.62-.54s1.05-.09,1.49,0l.12,1.09c-.62-.07-1.27-.02-1.94.14Zm5.88-6.65l1.14-.13.19,1.74-1.14.13-.19-1.74Zm2.18,19.62l-1.63-14.71,1.14-.13,1.63,14.71-1.14.13Zm-25.01-61.08c-1.72-15.52,8.19-28.74,24.65-30.57,15.2-1.69,27.76,8.83,29.51,24.56.24,2.19.27,4.29.07,6.32l-36.97,4.11c2.58,5.2,7.58,6.54,13.31,5.9,4.27-.47,7.73-2.54,9.56-5.07l13.29,5.8c-4.32,7.65-11.62,12.15-21.51,13.25-17.81,1.98-30.18-8.77-31.9-24.29Zm42.91,59.09l-.87-7.79c-.12-1.05-.32-1.95-.62-2.7-.3-.74-.68-1.34-1.16-1.8-.47-.46-1.02-.78-1.64-.96-.62-.18-1.31-.23-2.08-.14-.9.1-1.65.34-2.24.72-.6.38-1.06.87-1.39,1.46-.33.59-.55,1.25-.65,1.97-.1.73-.11,1.49-.02,2.27l.89,8.04-1.14.13-1.63-14.71,1.06-.12.27,2.4c.43-.96,1.04-1.72,1.83-2.24.86-.57,1.83-.92,2.91-1.04.74-.08,1.44-.05,2.08.09.65.14,1.23.38,1.76.72.53.34,1,.78,1.39,1.31.4.54.73,1.16.98,1.87.25.71.43,1.5.53,2.38l.89,8.01-1.14.13Zm17.74,2.75c-.4.83-1.01,1.47-1.82,1.95-.81.47-1.85.78-3.11.92-.71.08-1.43.06-2.17-.06-.74-.12-1.45-.38-2.14-.79-.68-.41-1.29-1-1.83-1.78l.93-.79c.6.95,1.37,1.59,2.31,1.92s1.86.43,2.77.33c1.32-.15,2.32-.51,3-1.08.68-.58,1.12-1.37,1.31-2.38s.21-2.24.04-3.69l-.23-2.05c-.36.96-.87,1.78-1.56,2.44-.83.79-1.9,1.26-3.2,1.4-1.39.15-2.6-.06-3.62-.64-1.03-.58-1.85-1.43-2.47-2.55s-1.01-2.42-1.18-3.89c-.16-1.44-.07-2.78.29-4,.35-1.23.95-2.23,1.8-3.02.85-.79,1.93-1.25,3.24-1.4,1.37-.15,2.56.05,3.58.62.92.51,1.66,1.26,2.25,2.22l-.34-3.04,1.06-.12,1.54,13.89c.05.44.09.88.12,1.3.03.42.04.84.03,1.25-.01,1.21-.22,2.22-.62,3.05Zm1.21-68.71c-1.72-15.52,8.19-28.74,21.83-30.26,6.98-.78,12.35,1.05,16.22,4.63l-.54-4.89,15.62-1.74,5.79,52.07-15.62,1.74-.54-4.89c-3,4.34-7.83,7.3-14.81,8.08-13.64,1.52-26.22-9.21-27.94-24.73Zm10.2,42.87l1.14-.13.19,1.74-1.14.13-.19-1.74Zm2.18,19.61l-1.63-14.71,1.14-.13,1.63,14.71-1.14.13Zm17.9-1.99l-.87-7.79c-.12-1.05-.32-1.95-.62-2.7-.3-.74-.69-1.34-1.16-1.8-.47-.46-1.02-.78-1.64-.96-.62-.18-1.31-.23-2.08-.14-.9.1-1.65.34-2.24.72-.6.38-1.06.87-1.39,1.46-.33.59-.55,1.25-.65,1.97-.1.73-.11,1.49-.02,2.28h0l.89,8.04-1.14.13-1.63-14.71,1.06-.12.27,2.39c.43-.96,1.04-1.71,1.83-2.24.86-.57,1.83-.92,2.91-1.04.75-.08,1.44-.05,2.09.09.64.14,1.23.38,1.76.72.53.34.99.78,1.39,1.31.4.54.73,1.16.98,1.87.25.71.43,1.5.53,2.38l.89,8.01-1.14.13Zm17.35-1.93l-.87-7.79c-.12-1.05-.32-1.95-.62-2.7-.3-.74-.68-1.34-1.16-1.8-.47-.46-1.02-.78-1.64-.96-.62-.18-1.31-.23-2.08-.14-.9.1-1.65.34-2.24.72-.6.38-1.06.87-1.39,1.46-.33.59-.55,1.25-.65,1.97-.1.73-.11,1.49-.02,2.27l.89,8.04-1.14.13-1.63-14.71,1.06-.12.27,2.4c.43-.96,1.04-1.72,1.83-2.24.86-.57,1.83-.92,2.91-1.04.75-.08,1.44-.05,2.08.09.65.14,1.23.38,1.76.72.53.34.99.78,1.39,1.31.4.54.73,1.16.98,1.87.25.71.43,1.5.53,2.38l.89,8.01-1.14.13Zm17.93-5.33c-.39,1.22-1.05,2.22-1.98,2.98-.93.76-2.12,1.23-3.56,1.39-1.45.16-2.72-.04-3.79-.59-1.07-.55-1.93-1.38-2.58-2.5-.65-1.11-1.06-2.43-1.23-3.96-.17-1.54-.06-2.93.34-4.15.4-1.22,1.06-2.21,1.99-2.96.93-.76,2.11-1.21,3.54-1.37,1.46-.16,2.73.03,3.8.58,1.07.55,1.93,1.38,2.57,2.48.64,1.11,1.05,2.42,1.21,3.93.17,1.55.06,2.94-.32,4.17Zm10.57,2.17l-1.25.14-6.97-14.12,1.2-.13,6.22,12.52,3.29-13.58,1.22-.14-3.71,15.3Zm18.88-2.1l-.3-2.71c-.34.83-.85,1.56-1.57,2.16-1.08.9-2.4,1.44-3.97,1.61-1.14.13-2.12.03-2.91-.28-.8-.32-1.42-.78-1.87-1.39-.44-.61-.71-1.3-.79-2.06-.1-.86.01-1.6.33-2.21.31-.61.76-1.11,1.33-1.5s1.2-.7,1.88-.93c.83-.27,1.73-.52,2.69-.76.96-.24,1.85-.45,2.67-.63.58-.13,1.05-.24,1.42-.33-.17-1.62-.61-2.81-1.35-3.55-.77-.77-2.01-1.07-3.72-.88-1.24.14-2.2.52-2.88,1.15-.69.63-1.12,1.53-1.29,2.7l-1.29-.19c.18-1.4.73-2.51,1.66-3.33.93-.82,2.18-1.32,3.73-1.49,1.36-.15,2.53,0,3.5.45.97.45,1.67,1.13,2.1,2.04.17.35.31.78.42,1.29.11.51.2,1.01.25,1.5l1.02,9.21-1.06.12Zm11.79-1.12c-.72.04-1.38-.06-1.98-.3-.6-.24-1.07-.66-1.42-1.24-.27-.46-.45-.93-.53-1.42-.08-.49-.16-1.05-.23-1.69l-.96-8.69-3.46.38-.13-1.14,3.46-.38-.45-4.09,1.14-.13.45,4.09,4.63-.51.13,1.14-4.63.51.97,8.69c.07.64.13,1.15.19,1.54.06.39.19.75.4,1.07.4.62.96.96,1.69,1.03.72.07,1.65-.05,2.77-.37l.12,1.09c-.72.25-1.44.39-2.16.43Zm17.72-5.5c-.39,1.22-1.05,2.22-1.98,2.98-.93.76-2.12,1.23-3.56,1.39-1.45.16-2.72-.04-3.79-.59-1.07-.55-1.93-1.38-2.58-2.5s-1.06-2.43-1.23-3.96c-.17-1.54-.06-2.93.34-4.15.4-1.22,1.06-2.21,2-2.96.93-.76,2.11-1.21,3.54-1.37,1.46-.16,2.73.03,3.8.58,1.07.55,1.93,1.37,2.57,2.48.64,1.11,1.05,2.42,1.22,3.93.17,1.55.06,2.94-.32,4.17Zm8.97-11.52c-.67.16-1.27.55-1.8,1.16-.46.54-.77,1.13-.91,1.78s-.2,1.31-.17,1.98c.03.67.08,1.31.14,1.91l.8,7.25-1.14.13-1.63-14.71,1.06-.12.26,2.32c.06-.14.12-.28.19-.41.2-.37.4-.68.6-.92.36-.43.8-.79,1.33-1.05.53-.27,1.06-.45,1.62-.54.55-.09,1.05-.09,1.49,0l.12,1.09c-.62-.07-1.27-.02-1.94.14Zm16.64,11.25c-.92.87-2.24,1.4-3.99,1.59-1.66.18-3.08,0-4.26-.58s-1.96-1.46-2.36-2.65l1.15-.35c.35.88,1,1.54,1.96,1.99.96.45,2.1.59,3.41.45,1.34-.15,2.36-.55,3.09-1.21.72-.66,1.03-1.48.92-2.46-.06-.54-.23-.96-.5-1.27-.27-.31-.77-.57-1.49-.78-.72-.21-1.76-.42-3.14-.63-1.44-.23-2.57-.48-3.39-.75-.82-.27-1.41-.62-1.77-1.03-.36-.41-.58-.95-.65-1.6-.09-.78.07-1.5.46-2.15s.99-1.19,1.77-1.62c.78-.43,1.71-.7,2.78-.82,1.08-.12,2.08-.05,2.98.21.91.26,1.66.68,2.26,1.27s.99,1.28,1.17,2.11l-1.15.35c-.29-1.01-.9-1.76-1.84-2.26-.94-.5-2.07-.67-3.38-.53-1.23.12-2.2.48-2.92,1.08-.72.6-1.03,1.32-.94,2.16.05.46.23.85.53,1.15.3.3.79.55,1.48.75.68.2,1.62.38,2.82.54,1.51.21,2.7.46,3.56.75s1.49.67,1.88,1.14c.39.47.62,1.08.71,1.84.15,1.34-.24,2.44-1.15,3.31Zm-12.3-33.9c-15.31,1.7-28.93-8.91-30.65-24.43-1.72-15.52,9.23-28.86,24.54-30.56s28.93,8.91,30.65,24.43c1.72,15.52-9.23,28.86-24.54,30.56Z"/>
      <path class="cls-1" d="m339.65,170.07c-.39.08-.84.17-1.38.28-.84.17-1.73.37-2.66.6-.93.23-1.77.48-2.51.75-.43.16-.87.38-1.32.67-.45.29-.81.67-1.08,1.13-.28.46-.38,1.03-.3,1.7.05.47.22.94.51,1.39s.73.81,1.33,1.08c.6.26,1.38.34,2.35.24,1.06-.12,1.98-.41,2.75-.88.77-.47,1.37-1.1,1.79-1.88.42-.78.65-1.68.67-2.7.02-.52,0-1.06-.07-1.65-.03-.28-.06-.53-.08-.73Z"/>
      <path class="cls-1" d="m379,97.41c-6.77.75-11.43,6.22-10.61,13.62.82,7.39,6.57,11.71,13.34,10.96,6.77-.75,11.43-6.23,10.61-13.62-.82-7.39-6.57-11.71-13.34-10.96Z"/>
    </g>
  </g>
</svg>